<mxfile host="app.diagrams.net" agent="Mozilla/5.0 (Macintosh; Intel Mac OS X 10_15_7) AppleWebKit/537.36 (KHTML, like Gecko) Chrome/131.0.0.0 Safari/537.36" version="26.0.2">
  <diagram name="第 1 页" id="32HF78pC6sBemosIz4lU">
    <mxGraphModel dx="1306" dy="825" grid="1" gridSize="10" guides="1" tooltips="1" connect="1" arrows="1" fold="1" page="1" pageScale="1" pageWidth="827" pageHeight="1169" math="0" shadow="0">
      <root>
        <mxCell id="0" />
        <mxCell id="1" parent="0" />
        <mxCell id="4FRv2AJjElNeRstqnCj9-8" value="" style="edgeStyle=orthogonalEdgeStyle;rounded=0;orthogonalLoop=1;jettySize=auto;html=1;" edge="1" parent="1" source="4FRv2AJjElNeRstqnCj9-6" target="4FRv2AJjElNeRstqnCj9-7">
          <mxGeometry relative="1" as="geometry" />
        </mxCell>
        <mxCell id="4FRv2AJjElNeRstqnCj9-6" value="Let me help you" style="rounded=0;whiteSpace=wrap;html=1;" vertex="1" parent="1">
          <mxGeometry x="70" y="210" width="120" height="60" as="geometry" />
        </mxCell>
        <mxCell id="4FRv2AJjElNeRstqnCj9-10" value="" style="edgeStyle=orthogonalEdgeStyle;rounded=0;orthogonalLoop=1;jettySize=auto;html=1;" edge="1" parent="1" source="4FRv2AJjElNeRstqnCj9-7" target="4FRv2AJjElNeRstqnCj9-9">
          <mxGeometry relative="1" as="geometry" />
        </mxCell>
        <mxCell id="4FRv2AJjElNeRstqnCj9-23" value="Yes" style="edgeLabel;html=1;align=center;verticalAlign=middle;resizable=0;points=[];" vertex="1" connectable="0" parent="4FRv2AJjElNeRstqnCj9-10">
          <mxGeometry x="-0.0333" y="-1" relative="1" as="geometry">
            <mxPoint as="offset" />
          </mxGeometry>
        </mxCell>
        <mxCell id="4FRv2AJjElNeRstqnCj9-27" style="edgeStyle=orthogonalEdgeStyle;rounded=0;orthogonalLoop=1;jettySize=auto;html=1;entryX=0.5;entryY=1;entryDx=0;entryDy=0;" edge="1" parent="1" source="4FRv2AJjElNeRstqnCj9-7" target="4FRv2AJjElNeRstqnCj9-6">
          <mxGeometry relative="1" as="geometry">
            <Array as="points">
              <mxPoint x="330" y="300" />
              <mxPoint x="130" y="300" />
            </Array>
          </mxGeometry>
        </mxCell>
        <mxCell id="4FRv2AJjElNeRstqnCj9-7" value="OK" style="rhombus;whiteSpace=wrap;html=1;rounded=0;" vertex="1" parent="1">
          <mxGeometry x="290" y="200" width="80" height="80" as="geometry" />
        </mxCell>
        <mxCell id="4FRv2AJjElNeRstqnCj9-12" value="" style="edgeStyle=orthogonalEdgeStyle;rounded=0;orthogonalLoop=1;jettySize=auto;html=1;" edge="1" parent="1" source="4FRv2AJjElNeRstqnCj9-9" target="4FRv2AJjElNeRstqnCj9-11">
          <mxGeometry relative="1" as="geometry" />
        </mxCell>
        <mxCell id="4FRv2AJjElNeRstqnCj9-9" value="What&#39;s you problem?" style="whiteSpace=wrap;html=1;rounded=0;" vertex="1" parent="1">
          <mxGeometry x="430" y="210" width="120" height="60" as="geometry" />
        </mxCell>
        <mxCell id="4FRv2AJjElNeRstqnCj9-14" value="" style="edgeStyle=orthogonalEdgeStyle;rounded=0;orthogonalLoop=1;jettySize=auto;html=1;" edge="1" parent="1" source="4FRv2AJjElNeRstqnCj9-11" target="4FRv2AJjElNeRstqnCj9-13">
          <mxGeometry relative="1" as="geometry" />
        </mxCell>
        <mxCell id="4FRv2AJjElNeRstqnCj9-24" value="Yes" style="edgeLabel;html=1;align=center;verticalAlign=middle;resizable=0;points=[];" vertex="1" connectable="0" parent="4FRv2AJjElNeRstqnCj9-14">
          <mxGeometry x="0.0667" relative="1" as="geometry">
            <mxPoint as="offset" />
          </mxGeometry>
        </mxCell>
        <mxCell id="4FRv2AJjElNeRstqnCj9-28" style="edgeStyle=orthogonalEdgeStyle;rounded=0;orthogonalLoop=1;jettySize=auto;html=1;entryX=0.5;entryY=1;entryDx=0;entryDy=0;" edge="1" parent="1" source="4FRv2AJjElNeRstqnCj9-11" target="4FRv2AJjElNeRstqnCj9-6">
          <mxGeometry relative="1" as="geometry">
            <Array as="points">
              <mxPoint x="690" y="340" />
              <mxPoint x="130" y="340" />
            </Array>
          </mxGeometry>
        </mxCell>
        <mxCell id="4FRv2AJjElNeRstqnCj9-11" value="submit" style="rhombus;whiteSpace=wrap;html=1;rounded=0;" vertex="1" parent="1">
          <mxGeometry x="650" y="200" width="80" height="80" as="geometry" />
        </mxCell>
        <mxCell id="4FRv2AJjElNeRstqnCj9-16" value="" style="edgeStyle=orthogonalEdgeStyle;rounded=0;orthogonalLoop=1;jettySize=auto;html=1;" edge="1" parent="1" source="4FRv2AJjElNeRstqnCj9-13" target="4FRv2AJjElNeRstqnCj9-15">
          <mxGeometry relative="1" as="geometry" />
        </mxCell>
        <mxCell id="4FRv2AJjElNeRstqnCj9-13" value="When do you want me to slove it?" style="whiteSpace=wrap;html=1;rounded=0;" vertex="1" parent="1">
          <mxGeometry x="790" y="210" width="120" height="60" as="geometry" />
        </mxCell>
        <mxCell id="4FRv2AJjElNeRstqnCj9-18" value="" style="edgeStyle=orthogonalEdgeStyle;rounded=0;orthogonalLoop=1;jettySize=auto;html=1;" edge="1" parent="1" source="4FRv2AJjElNeRstqnCj9-15" target="4FRv2AJjElNeRstqnCj9-17">
          <mxGeometry relative="1" as="geometry" />
        </mxCell>
        <mxCell id="4FRv2AJjElNeRstqnCj9-25" value="Yes" style="edgeLabel;html=1;align=center;verticalAlign=middle;resizable=0;points=[];" vertex="1" connectable="0" parent="4FRv2AJjElNeRstqnCj9-18">
          <mxGeometry x="-0.1" y="-1" relative="1" as="geometry">
            <mxPoint as="offset" />
          </mxGeometry>
        </mxCell>
        <mxCell id="4FRv2AJjElNeRstqnCj9-29" style="edgeStyle=orthogonalEdgeStyle;rounded=0;orthogonalLoop=1;jettySize=auto;html=1;entryX=0.5;entryY=1;entryDx=0;entryDy=0;" edge="1" parent="1" source="4FRv2AJjElNeRstqnCj9-15" target="4FRv2AJjElNeRstqnCj9-6">
          <mxGeometry relative="1" as="geometry">
            <Array as="points">
              <mxPoint x="1050" y="380" />
              <mxPoint x="130" y="380" />
            </Array>
          </mxGeometry>
        </mxCell>
        <mxCell id="4FRv2AJjElNeRstqnCj9-15" value="submit" style="rhombus;whiteSpace=wrap;html=1;rounded=0;" vertex="1" parent="1">
          <mxGeometry x="1010" y="200" width="80" height="80" as="geometry" />
        </mxCell>
        <mxCell id="4FRv2AJjElNeRstqnCj9-20" value="" style="edgeStyle=orthogonalEdgeStyle;rounded=0;orthogonalLoop=1;jettySize=auto;html=1;" edge="1" parent="1" source="4FRv2AJjElNeRstqnCj9-17" target="4FRv2AJjElNeRstqnCj9-19">
          <mxGeometry relative="1" as="geometry" />
        </mxCell>
        <mxCell id="4FRv2AJjElNeRstqnCj9-17" value="save to databse" style="whiteSpace=wrap;html=1;rounded=0;" vertex="1" parent="1">
          <mxGeometry x="1150" y="210" width="120" height="60" as="geometry" />
        </mxCell>
        <mxCell id="4FRv2AJjElNeRstqnCj9-22" value="" style="edgeStyle=orthogonalEdgeStyle;rounded=0;orthogonalLoop=1;jettySize=auto;html=1;" edge="1" parent="1" source="4FRv2AJjElNeRstqnCj9-19" target="4FRv2AJjElNeRstqnCj9-21">
          <mxGeometry relative="1" as="geometry" />
        </mxCell>
        <mxCell id="4FRv2AJjElNeRstqnCj9-26" value="Yes" style="edgeLabel;html=1;align=center;verticalAlign=middle;resizable=0;points=[];" vertex="1" connectable="0" parent="4FRv2AJjElNeRstqnCj9-22">
          <mxGeometry x="0.1" relative="1" as="geometry">
            <mxPoint as="offset" />
          </mxGeometry>
        </mxCell>
        <mxCell id="4FRv2AJjElNeRstqnCj9-30" style="edgeStyle=orthogonalEdgeStyle;rounded=0;orthogonalLoop=1;jettySize=auto;html=1;entryX=0.5;entryY=1;entryDx=0;entryDy=0;" edge="1" parent="1" source="4FRv2AJjElNeRstqnCj9-19" target="4FRv2AJjElNeRstqnCj9-17">
          <mxGeometry relative="1" as="geometry">
            <Array as="points">
              <mxPoint x="1410" y="300" />
              <mxPoint x="1210" y="300" />
            </Array>
          </mxGeometry>
        </mxCell>
        <mxCell id="4FRv2AJjElNeRstqnCj9-31" value="Retry" style="edgeLabel;html=1;align=center;verticalAlign=middle;resizable=0;points=[];" vertex="1" connectable="0" parent="4FRv2AJjElNeRstqnCj9-30">
          <mxGeometry x="-0.056" relative="1" as="geometry">
            <mxPoint as="offset" />
          </mxGeometry>
        </mxCell>
        <mxCell id="4FRv2AJjElNeRstqnCj9-19" value="success" style="rhombus;whiteSpace=wrap;html=1;rounded=0;" vertex="1" parent="1">
          <mxGeometry x="1370" y="200" width="80" height="80" as="geometry" />
        </mxCell>
        <mxCell id="4FRv2AJjElNeRstqnCj9-21" value="List Page" style="whiteSpace=wrap;html=1;rounded=0;" vertex="1" parent="1">
          <mxGeometry x="1510" y="210" width="120" height="60" as="geometry" />
        </mxCell>
      </root>
    </mxGraphModel>
  </diagram>
</mxfile>
